<svg width="52" height="52" viewBox="0 0 52 52" fill="none" xmlns="http://www.w3.org/2000/svg">
  <path d="M5.95843 40.4083C5.07009 40.4083 4.33343 39.6717 4.33343 38.7833V26.4333C4.22509 20.5617 6.41343 15.015 10.4868 10.855C14.5601 6.71665 20.0201 4.44165 25.8918 4.44165C37.8951 4.44165 47.6668 14.2133 47.6668 26.2167V38.5666C47.6668 39.455 46.9301 40.1917 46.0418 40.1917C45.1534 40.1917 44.4168 39.455 44.4168 38.5666V26.2167C44.4168 16.0117 36.1184 7.69165 25.8918 7.69165C20.8868 7.69165 16.2501 9.61998 12.8051 13.13C9.33843 16.6617 7.49676 21.3633 7.58343 26.39V38.7616C7.58343 39.6716 6.86843 40.4083 5.95843 40.4083Z" fill="#2196F3" />
  <path d="M12.8702 26.975H12.5885C8.0385 26.975 4.3335 30.68 4.3335 35.23V39.3033C4.3335 43.8533 8.0385 47.5583 12.5885 47.5583H12.8702C17.4202 47.5583 21.1252 43.8533 21.1252 39.3033V35.23C21.1252 30.68 17.4202 26.975 12.8702 26.975Z" fill="#2196F3" />
  <path d="M39.4117 26.975H39.13C34.58 26.975 30.875 30.68 30.875 35.23V39.3033C30.875 43.8533 34.58 47.5583 39.13 47.5583H39.4117C43.9617 47.5583 47.6667 43.8533 47.6667 39.3033V35.23C47.6667 30.68 43.9617 26.975 39.4117 26.975Z" fill="#2196F3" />
</svg>