<svg width="52" height="52" viewBox="0 0 52 52" fill="none" xmlns="http://www.w3.org/2000/svg">
  <g clip-path="url(#clip0_2318_12407)">
    <path d="M34.773 27.5592C32.4331 23.9089 28.448 21.7292 24.1125 21.7292C19.7771 21.7292 15.7919 23.9089 13.4524 27.5592L7.81413 36.355C6.87864 37.8142 6.447 39.5003 6.56562 41.2296C6.68425 42.9594 7.34242 44.5701 8.46873 45.8888C9.59584 47.2064 11.0852 48.1069 12.7756 48.4933C14.4661 48.8798 16.199 48.7147 17.7867 48.0169L17.893 47.9697C21.8881 46.2487 26.4532 46.2645 30.438 48.0169C31.4659 48.4687 32.5549 48.6973 33.6538 48.6973C34.2513 48.6973 34.8524 48.6294 35.4478 48.4937C37.1383 48.1077 38.6276 47.2071 39.7551 45.8892C40.8818 44.5717 41.5404 42.9606 41.6594 41.2304C41.7784 39.5003 41.3468 37.8146 40.4113 36.3546L34.773 27.5592Z" fill="#2196F3" />
    <path d="M9.33308 27.5477C11.0104 26.9034 12.2847 25.5518 12.9211 23.7415C13.5269 22.0189 13.4773 20.0741 12.781 18.265C12.0844 16.4572 10.8172 14.9813 9.21287 14.1089C7.52757 13.1929 5.67604 13.0437 4.00145 13.6892C0.632428 14.9845 -0.913623 19.1478 0.555462 22.9718C1.72898 26.0155 4.46601 27.9369 7.23319 27.9369C7.93977 27.9369 8.64832 27.8115 9.33308 27.5477Z" fill="#2196F3" />
    <path d="M20.2732 20.6565C24.4848 20.6565 27.9114 16.7527 27.9114 11.9542C27.9114 7.1546 24.4848 3.25 20.2732 3.25C16.0619 3.25 12.6357 7.1546 12.6357 11.9542C12.6357 16.7527 16.0619 20.6565 20.2732 20.6565Z" fill="#2196F3" />
    <path d="M33.4642 22.7944H33.4646C34.1125 23.0095 34.7734 23.1122 35.4316 23.1122C38.5031 23.1122 41.4964 20.8767 42.6386 17.441C43.2963 15.4633 43.2531 13.3721 42.5168 11.5532C41.7463 9.64885 40.3185 8.26665 38.4959 7.66085C36.673 7.05504 34.7016 7.30776 32.9445 8.37179C31.266 9.3882 29.9798 11.0374 29.3228 13.0151C27.9362 17.1871 29.7941 21.5741 33.4642 22.7944Z" fill="#2196F3" />
    <path d="M49.5498 21.7788L49.5486 21.7776C46.6442 19.6321 42.3004 20.5621 39.8649 23.8517C37.4318 27.143 37.8122 31.5677 40.7123 33.7148C41.77 34.4983 43.0197 34.8729 44.2987 34.8729C46.528 34.8729 48.8472 33.735 50.3976 31.6427C52.8304 28.3514 52.4503 23.9267 49.5498 21.7788Z" fill="#2196F3" />
  </g>
  <defs>
    <clipPath id="clip0_2318_12407">
      <rect width="52" height="52" fill="white" />
    </clipPath>
  </defs>
</svg>