<svg width="52" height="52" viewBox="0 0 52 52" fill="none" xmlns="http://www.w3.org/2000/svg">
  <g clip-path="url(#clip0_2318_12379)">
    <path d="M26 0C11.6408 0 0 11.6408 0 26C0 40.3592 11.6408 52 26 52C40.3592 52 52 40.3592 52 26C51.9839 11.6475 40.3525 0.0160808 26 0ZM26.928 7.49574L35.9667 3.88265C36.9924 4.34688 37.9848 4.88177 38.9365 5.48353L38.9602 5.49834C39.8954 6.09079 40.7892 6.74629 41.6355 7.46019L41.7083 7.52367C42.0879 7.84697 42.4569 8.18171 42.8158 8.52702C42.8611 8.57145 42.9085 8.61377 42.9537 8.65905C43.3299 9.02637 43.6943 9.40511 44.0468 9.79486C44.076 9.82786 44.1039 9.86257 44.1331 9.89557C44.4425 10.2422 44.74 10.601 45.0286 10.9658C45.098 11.0525 45.1674 11.1393 45.2347 11.226C45.5478 11.6314 45.8508 12.044 46.1369 12.4698L44.335 20.1293L35.4699 23.0847L26.9301 16.2517L26.928 7.49574ZM6.76449 11.2311C6.83177 11.1444 6.90033 11.0576 6.96973 10.9713C7.25495 10.6095 7.5499 10.2565 7.85459 9.91208C7.8876 9.87568 7.91807 9.83844 7.95065 9.80205C8.30104 9.41146 8.6637 9.03314 9.03949 8.66667C9.08265 8.62435 9.12581 8.57992 9.17109 8.54098C9.52699 8.19779 9.89303 7.86517 10.2692 7.54355L10.356 7.47077C11.1947 6.76195 12.08 6.11068 13.0059 5.52077L13.0398 5.49919C13.986 4.8987 14.972 4.36465 15.9919 3.9L25.072 7.49574V16.2492L16.5318 23.0809L7.6667 20.131L5.86481 12.4715C6.15342 12.0466 6.45303 11.6348 6.76449 11.2311ZM5.72008 39.2992C5.46533 38.9107 5.22158 38.515 4.98926 38.1118L4.93298 38.0144C4.70192 37.6133 4.48314 37.2053 4.27705 36.791L4.26986 36.7779C3.83568 35.9062 3.45439 35.009 3.12855 34.0911V34.0827C2.97451 33.6493 2.83402 33.2054 2.7041 32.759L2.65713 32.5944C2.53822 32.175 2.43031 31.751 2.33382 31.3223C2.32536 31.2804 2.31478 31.2406 2.30632 31.1992C2.09346 30.2309 1.94069 29.2508 1.84844 28.2636L7.13942 21.9146L15.9432 24.849L18.4983 35.0687L14.3 40.6546L5.72008 39.2992ZM31.7713 49.5672C31.338 49.6746 30.8932 49.7673 30.4484 49.8507C30.3862 49.863 30.3228 49.8731 30.2605 49.8845C29.8818 49.9522 29.4988 50.0102 29.115 50.0576C29.0126 50.0707 28.911 50.0847 28.809 50.097C28.4527 50.1384 28.093 50.1698 27.7325 50.1956C27.6191 50.2032 27.5069 50.2146 27.3935 50.2218C26.9327 50.2502 26.468 50.2667 26 50.2667C25.5713 50.2667 25.1452 50.2552 24.7216 50.2328C24.6704 50.2328 24.6213 50.2243 24.5701 50.2205C24.193 50.199 23.8177 50.1706 23.4432 50.1342L23.4 50.1262C22.5795 50.0373 21.7636 49.907 20.9562 49.7364L15.8298 41.71L19.9621 36.1998H32.0379L36.2379 41.7464L31.7713 49.5672ZM49.7 31.2C49.6911 31.2415 49.681 31.2817 49.6721 31.3231C49.5752 31.7514 49.4673 32.1754 49.3488 32.5952L49.3022 32.7598C49.1719 33.2063 49.0318 33.6485 48.8774 34.0835V34.092C48.5515 35.0099 48.1707 35.907 47.7361 36.7787L47.7289 36.7919C47.5215 37.2066 47.3032 37.6145 47.0729 38.0153L47.0167 38.1126C46.7856 38.5172 46.5423 38.912 46.2871 39.2983L37.7364 40.6466L33.5089 35.0653L36.0627 24.8481L44.8665 21.9138L50.1575 28.2627C50.0657 29.2504 49.9129 30.2313 49.7 31.2Z" fill="#2196F3" />
  </g>
  <defs>
    <clipPath id="clip0_2318_12379">
      <rect width="52" height="52" fill="white" />
    </clipPath>
  </defs>
</svg>