<svg width="52" height="52" viewBox="0 0 52 52" fill="none" xmlns="http://www.w3.org/2000/svg">
  <path d="M38.3594 12.2381C38.9452 11.8676 39.4452 11.3763 39.8259 10.797C40.2066 10.2178 40.4594 9.56399 40.5672 8.87927C40.675 8.19455 40.6355 7.4947 40.4512 6.82648C40.267 6.15826 39.9422 5.53707 39.4987 5.0044C39.0551 4.47173 38.503 4.03986 37.8792 3.73763C37.2554 3.43541 36.5743 3.2698 35.8813 3.25187C35.1884 3.23394 34.4996 3.3641 33.861 3.63366C33.2224 3.90321 32.6487 4.30595 32.1782 4.81497C35.1115 6.40862 37.3232 9.06482 38.3594 12.2381Z" fill="#2196F3" />
  <path d="M13.6404 12.2381C14.6766 9.06479 16.8884 6.40861 19.8216 4.81493C19.351 4.30623 18.7774 3.9038 18.1389 3.6345C17.5004 3.3652 16.8117 3.23524 16.119 3.2533C15.4263 3.27136 14.7454 3.43702 14.1218 3.73922C13.4982 4.04141 12.9462 4.47319 12.5028 5.00571C12.0594 5.53824 11.7347 6.15924 11.5504 6.82726C11.3661 7.49527 11.3265 8.19492 11.4342 8.87947C11.5418 9.56402 11.7943 10.2177 12.1748 10.7969C12.5553 11.3761 13.0549 11.8674 13.6404 12.2381Z" fill="#2196F3" />
  <path d="M40.8313 25.5649C39.7639 24.4727 38.4889 23.6048 37.0813 23.0123C36.7325 23.5865 36.34 24.1329 35.9072 24.6467C37.8904 27.469 39.1721 30.7234 39.646 34.1401C41.076 34.534 42.3477 34.3899 43.1294 33.6082C44.7159 32.0217 43.687 28.4206 40.8313 25.5649Z" fill="#2196F3" />
  <path d="M12.3538 34.1401C12.8278 30.7234 14.1095 27.469 16.0926 24.6467C15.6598 24.1329 15.2673 23.5865 14.9186 23.0123C13.511 23.6048 12.236 24.4727 11.1686 25.5649C8.31286 28.4206 7.28391 32.0217 8.87048 33.6082C9.65251 34.3899 10.9239 34.534 12.3538 34.1401Z" fill="#2196F3" />
  <path d="M14.625 16.25C14.625 18.4998 15.2921 20.699 16.542 22.5696C17.7919 24.4402 19.5685 25.8982 21.647 26.7591C23.7255 27.6201 26.0126 27.8453 28.2192 27.4064C30.4257 26.9675 32.4525 25.8842 34.0433 24.2933C35.6342 22.7025 36.7175 20.6757 37.1564 18.4692C37.5953 16.2626 37.3701 13.9755 36.5091 11.897C35.6482 9.81847 34.1902 8.04193 32.3196 6.79203C30.449 5.54213 28.2498 4.875 26 4.875C22.9832 4.875 20.0899 6.07343 17.9567 8.20666C15.8234 10.3399 14.625 13.2332 14.625 16.25ZM31.6875 13.8125C31.8482 13.8125 32.0053 13.8602 32.1389 13.9494C32.2725 14.0387 32.3767 14.1656 32.4382 14.3141C32.4996 14.4625 32.5157 14.6259 32.4844 14.7835C32.453 14.9411 32.3757 15.0859 32.262 15.1995C32.1484 15.3132 32.0036 15.3905 31.846 15.4219C31.6884 15.4532 31.525 15.4371 31.3766 15.3757C31.2281 15.3142 31.1012 15.21 31.0119 15.0764C30.9227 14.9428 30.875 14.7857 30.875 14.625C30.875 14.4095 30.9606 14.2028 31.113 14.0505C31.2653 13.8981 31.472 13.8125 31.6875 13.8125ZM26 17.0625C27.0045 17.0625 30.0625 17.0625 30.0625 19.5C29.9837 20.5513 29.5305 21.5395 28.785 22.285C28.0395 23.0305 27.0513 23.4837 26 23.5625C24.9487 23.4837 23.9605 23.0305 23.215 22.285C22.4695 21.5395 22.0163 20.5513 21.9375 19.5C21.9375 17.0625 24.9955 17.0625 26 17.0625ZM20.3125 13.8125C20.4732 13.8125 20.6303 13.8602 20.7639 13.9494C20.8975 14.0387 21.0017 14.1656 21.0632 14.3141C21.1246 14.4625 21.1407 14.6259 21.1094 14.7835C21.078 14.9411 21.0007 15.0859 20.887 15.1995C20.7734 15.3132 20.6286 15.3905 20.471 15.4219C20.3134 15.4532 20.15 15.4371 20.0016 15.3757C19.8531 15.3142 19.7262 15.21 19.6369 15.0764C19.5477 14.9428 19.5 14.7857 19.5 14.625C19.5 14.4095 19.5856 14.2028 19.738 14.0505C19.8903 13.8981 20.097 13.8125 20.3125 13.8125Z" fill="#2196F3" />
  <path d="M26 21.9375C26.622 21.8665 27.2015 21.5869 27.6442 21.1442C28.0869 20.7015 28.3665 20.122 28.4375 19.5C28.4375 19.2568 28.4375 18.6875 26 18.6875C23.5625 18.6875 23.5625 19.2568 23.5625 19.5C23.6335 20.122 23.9131 20.7015 24.3558 21.1442C24.7985 21.5869 25.378 21.8665 26 21.9375Z" fill="#2196F3" />
  <path d="M36.5625 48.75C39.2549 48.75 41.4375 46.5674 41.4375 43.875C41.4375 41.1826 39.2549 39 36.5625 39C33.8701 39 31.6875 41.1826 31.6875 43.875C31.6875 46.5674 33.8701 48.75 36.5625 48.75Z" fill="#2196F3" />
  <path d="M36.5625 37.375C37.0951 37.3771 37.6254 37.4449 38.1413 37.5771C38.1639 37.244 38.1875 36.9119 38.1875 36.5625C38.1265 32.7224 36.9408 28.9845 34.7773 25.8114C32.3889 28.022 29.2544 29.25 26 29.25C22.7456 29.25 19.6111 28.022 17.2227 25.8114C15.0592 28.9845 13.8735 32.7224 13.8125 36.5625C13.8125 36.9119 13.8361 37.244 13.8587 37.5771C15.0992 37.2625 16.4051 37.322 17.6119 37.7481C18.8187 38.1743 19.8725 38.948 20.6404 39.9718C21.4084 40.9956 21.8562 42.2238 21.9275 43.5016C21.9988 44.7795 21.6904 46.0499 21.0411 47.1528C24.2643 48.1991 27.7358 48.1991 30.959 47.1528C30.3785 46.1665 30.0693 45.0442 30.0627 43.8998C30.0561 42.7554 30.3523 41.6296 30.9214 40.6367C31.4904 39.6437 32.312 38.819 33.3027 38.2462C34.2934 37.6733 35.4181 37.3728 36.5625 37.375Z" fill="#2196F3" />
  <path d="M15.4375 48.75C18.1299 48.75 20.3125 46.5674 20.3125 43.875C20.3125 41.1826 18.1299 39 15.4375 39C12.7451 39 10.5625 41.1826 10.5625 43.875C10.5625 46.5674 12.7451 48.75 15.4375 48.75Z" fill="#2196F3" />
</svg>