<svg width="52" height="52" viewBox="0 0 52 52" fill="none" xmlns="http://www.w3.org/2000/svg">
  <g clip-path="url(#clip0_2318_12429)">
    <path d="M52 15.2344V48.9531H36.5046C32.2466 48.9531 30.0072 51.8403 29.7791 52H22.2209C21.9895 51.8381 19.7821 48.9531 15.4954 48.9531H0V12.1875H3.04688V45.9062H15.5086C20.27 45.9062 22.9204 48.5927 23.5808 48.9531H28.4192C29.0793 48.5928 31.7304 45.9062 36.4914 45.9062H48.9531V15.2344H52Z" fill="#2196F3" />
    <path d="M21.4226 44.0751C19.5721 43.2748 17.5703 42.8594 15.5086 42.8594H6.09375V6.09375H9.14062V36.7656H13.7109C17.8628 36.7656 21.2591 40.0166 21.4226 44.0751Z" fill="#2196F3" />
    <path d="M36.4915 9.14062C33.2645 9.14062 30.1564 9.98603 27.4165 11.6026C27.4873 12.2946 27.5235 12.9984 27.5235 13.7109V45.8424C27.7276 45.6944 27.9609 45.5304 28.2267 45.3559C32.9306 42.2186 36.1718 42.8594 45.9064 42.8594V9.14062H36.4915Z" fill="#2196F3" />
    <path d="M24.4766 44.3828C24.4766 38.5026 19.6472 33.7188 13.7109 33.7188H12.1875V0C19.8038 0 24.4766 6.15073 24.4766 13.7109V44.3828Z" fill="#2196F3" />
  </g>
  <defs>
    <clipPath id="clip0_2318_12429">
      <rect width="52" height="52" fill="white" />
    </clipPath>
  </defs>
</svg>