<svg width="52" height="52" viewBox="0 0 52 52" fill="none" xmlns="http://www.w3.org/2000/svg">
  <path d="M49.5232 22.7688C49.2191 22.262 46.2177 20.9655 46.2177 20.9655C46.7397 20.6959 47.0965 20.6401 47.0965 19.5251C47.0965 18.3087 47.0905 17.9033 46.2795 17.9033H43.5285C43.5174 17.879 43.5052 17.8536 43.4941 17.8283C41.7181 13.9501 41.4799 12.9699 38.8313 11.6501C35.2785 9.88333 28.6178 9.79413 26.0066 9.79413C23.3955 9.79413 16.7348 9.88333 13.185 11.6501C10.5333 12.9679 10.5992 13.646 8.52232 17.8283C8.52232 17.8394 8.50103 17.8688 8.48177 17.9033H5.7277C4.92286 17.9033 4.91678 18.3087 4.91678 19.5251C4.91678 20.6401 5.27359 20.6959 5.79561 20.9655C5.79561 20.9655 2.89557 22.3633 2.49012 22.7688C2.08466 23.1742 1.6792 26.0124 1.6792 30.8779C1.6792 35.7434 2.08466 40.6089 2.08466 40.6089H3.29495C3.29495 42.028 3.50376 42.2308 4.11195 42.2308H12.2211C12.8293 42.2308 13.032 42.028 13.032 40.6089H38.9813C38.9813 42.028 39.184 42.2308 39.7922 42.2308H48.1041C48.5096 42.2308 48.7123 41.9267 48.7123 40.6089H49.9287C49.9287 40.6089 50.3341 35.6421 50.3341 30.8779C50.3341 26.1138 49.8273 23.2756 49.5232 22.7688ZM12.7542 27.3241C10.9082 27.5259 9.05259 27.6295 7.19546 27.6343C5.12559 27.6343 5.05464 27.7671 4.90867 26.4747C4.85376 25.8831 4.87113 25.2871 4.96037 24.6998L5.02423 24.3906H5.32832C6.5447 24.3906 7.68707 24.4423 9.84411 25.0779C10.9412 25.4071 11.9731 25.9236 12.8941 26.6044C13.3361 26.9247 13.4374 27.2288 13.4374 27.2288L12.7542 27.3241ZM37.8075 34.6224L37.3595 35.7434H14.6538C14.6538 35.7434 14.6933 35.6816 14.147 34.6102C13.7415 33.8175 14.2484 33.3107 15.0502 33.0228C16.6031 32.4633 21.1411 30.8779 26.0066 30.8779C30.8721 30.8779 35.5004 32.2443 37.0047 33.0228C37.5622 33.3107 38.2545 33.5134 37.8075 34.6284V34.6224ZM11.7568 20.7831C11.4294 20.8019 11.1013 20.8043 10.7736 20.7902C11.0381 20.3198 11.1851 19.7958 11.4436 19.2484C12.2545 17.5252 13.182 15.5749 14.8332 14.7529C17.2194 13.5649 22.1649 13.0297 26.0066 13.0297C29.8484 13.0297 34.7939 13.5608 37.1801 14.7529C38.8313 15.5749 39.7547 17.5262 40.5697 19.2484C40.8302 19.8008 40.9751 20.3289 41.2468 20.8023C41.0441 20.8135 40.8109 20.8023 40.2544 20.7831H11.7568ZM47.0033 26.4706C46.7864 27.7356 46.9891 27.6343 44.8179 27.6343C42.9608 27.6295 41.1052 27.5259 39.259 27.3241C38.9702 27.2724 38.888 26.7848 39.1192 26.6044C40.0356 25.916 41.0689 25.3988 42.1692 25.0779C44.3263 24.4423 45.5406 24.3572 46.7397 24.3997C46.8203 24.4028 46.8969 24.4356 46.9547 24.4917C47.0125 24.5478 47.0476 24.6235 47.053 24.7038C47.1103 25.2939 47.0936 25.8888 47.0033 26.4747V26.4706Z" fill="#2196F3" />
</svg>