<svg width="36" height="52" viewBox="0 0 36 52" fill="none" xmlns="http://www.w3.org/2000/svg">
  <path d="M12.8994 0H22.7015V4.26562H12.8994V0Z" fill="#2196F3" />
  <path d="M25.1384 7.3125H10.4629C4.67726 9.73771 0.651421 15.1833 0.0728198 21.4824H14.5235V34.1994C14.5197 35.0624 14.8609 35.8777 15.4845 36.5021C16.1061 37.1242 16.944 37.4816 17.7956 37.4767H30.6248V47.0235H0V52.0001H35.6012V23.0527C35.6013 16.0994 31.4 9.93728 25.1384 7.3125ZM29.1013 32.5H22.6013V16.5194C26.1911 16.5194 29.1013 19.4296 29.1013 23.0194V32.5Z" fill="#2196F3" />
  <path d="M0 24.5293V29.4796H8.05066V32.5264H0V35.9796H8.05066V39.0264H0V43.9766H27.5778V40.5235H17.8007C17.7941 40.5235 17.7873 40.5235 17.7805 40.5235C16.1388 40.5236 14.5155 39.8433 13.3288 38.6552C12.1269 37.4518 11.469 35.867 11.4766 34.1926V24.5293H0Z" fill="#2196F3" />
</svg>