<svg width="52" height="52" viewBox="0 0 52 52" fill="none" xmlns="http://www.w3.org/2000/svg">
  <g clip-path="url(#clip0_2318_12326)">
    <path d="M14.9584 8.71205L8.64218 12.1002V5.4783C8.64218 4.81611 9.18351 4.27478 9.8457 4.27478H13.7548C14.417 4.27478 14.9584 4.81611 14.9584 5.4783V8.71205ZM6.41898 24.0226V46.0261C6.41898 46.9615 7.18172 47.7242 8.11711 47.7242H23.9019V42.1444C23.9019 41.4538 24.4372 40.881 25.1166 40.82V35.0594C25.1166 34.512 25.338 34.0174 25.6986 33.6568C26.0581 33.2973 26.5537 33.0749 27.1032 33.0749H37.62C37.6809 33.0749 37.7348 33.0485 37.7754 33.0088C37.816 32.9682 37.8414 32.9134 37.8414 32.8535V28.2009C37.8414 28.1399 37.816 28.0861 37.7754 28.0455C37.7348 28.0049 37.6799 27.9825 37.62 27.9825H34.7559V28.1552C34.7559 29.1657 33.9292 29.9914 32.9217 29.9914H19.0777C18.0672 29.9914 17.2435 29.1647 17.2435 28.1552V26.0417C17.2435 25.0342 18.0672 24.2074 19.0777 24.2074H32.9227C33.9302 24.2074 34.757 25.0342 34.757 26.0417V26.2174H37.621C38.1684 26.2174 38.6661 26.4388 39.0256 26.7993C39.3852 27.1588 39.6076 27.6545 39.6076 28.2009V32.8535C39.6076 33.4009 39.3862 33.8985 39.0256 34.255C38.6661 34.6145 38.1674 34.839 37.621 34.839H27.1042C27.0433 34.839 26.9895 34.8624 26.9488 34.902C26.9082 34.9426 26.8828 34.9974 26.8828 35.0574V40.818C27.5592 40.8789 28.0975 41.4517 28.0975 42.1424V47.7222H43.8823C44.8177 47.7222 45.5805 46.9595 45.5805 46.0241V24.0226L25.9992 13.517L6.41898 24.0226ZM50.4412 17.9045L27.4038 5.54228C26.4827 5.04666 25.4173 5.09033 24.5652 5.55955L1.55922 17.9045C0.120075 18.6794 -0.421253 20.475 0.353669 21.9172C1.12757 23.3563 2.92422 23.8977 4.36742 23.1238L26.0002 11.5131L47.6351 23.1238C49.0742 23.8977 50.8709 23.3574 51.6488 21.9172C52.4217 20.475 51.8804 18.6794 50.4412 17.9045Z" fill="#2196F3" />
  </g>
  <defs>
    <clipPath id="clip0_2318_12326">
      <rect width="52" height="52" fill="white" />
    </clipPath>
  </defs>
</svg>