<svg width="52" height="52" viewBox="0 0 52 52" fill="none" xmlns="http://www.w3.org/2000/svg">
  <g clip-path="url(#clip0_2318_12382)">
    <path d="M50.6473 44.2128L30.2571 23.8225L6.43456 0H4.57282L4.19267 0.965961C3.18934 3.51559 2.76064 6.1233 2.9531 8.50688C3.17248 11.2239 4.20466 13.5762 5.93823 15.3097L24.5353 33.9068L26.9883 31.4539L44.1813 50.679C45.8916 52.3893 48.8354 52.4909 50.6473 50.679C52.4301 48.8961 52.4301 45.9955 50.6473 44.2128Z" fill="#2196F3" />
    <path d="M15.9178 29.5996L1.35259 44.1648C-0.430031 45.9474 -0.430031 48.8481 1.35259 50.6308C3.04605 52.3242 5.97562 52.4737 7.81857 50.6308L22.3839 36.0655L15.9178 29.5996Z" fill="#2196F3" />
    <path d="M49.7915 8.65806L41.5293 16.9202L39.3738 14.7648L47.636 6.5026L45.4807 4.34724L37.2186 12.6093L35.0632 10.454L43.3254 2.19188L41.1702 0.0366211L30.3934 10.8134C29.075 12.1318 28.2878 13.8823 28.1765 15.7428C28.1483 16.2141 28.0415 16.6777 27.8643 17.1187L34.8649 24.1193C35.3058 23.9419 35.7696 23.8352 36.2408 23.807C38.1012 23.696 39.8518 22.9086 41.1702 21.5902L51.947 10.8135L49.7915 8.65806Z" fill="#2196F3" />
  </g>
  <defs>
    <clipPath id="clip0_2318_12382">
      <rect width="52" height="52" fill="white" />
    </clipPath>
  </defs>
</svg>