<svg width="51" height="39" viewBox="0 0 51 39" fill="none" xmlns="http://www.w3.org/2000/svg">
  <path d="M49.3384 5.95156L39.304 0.223437C39.0575 0.0788102 38.7773 0.00173998 38.4915 0H31.9915C31.5605 0 31.1472 0.171205 30.8425 0.475952C30.5377 0.780698 30.3665 1.19402 30.3665 1.625C30.3665 2.91793 29.8529 4.15791 28.9386 5.07215C28.0244 5.98639 26.7844 6.5 25.4915 6.5C24.1986 6.5 22.9586 5.98639 22.0444 5.07215C21.1301 4.15791 20.6165 2.91793 20.6165 1.625C20.6165 1.19402 20.4453 0.780698 20.1405 0.475952C19.8358 0.171205 19.4225 0 18.9915 0H12.4915C12.2057 0.00173998 11.9255 0.0788102 11.679 0.223437L1.64463 5.95156C0.921111 6.35911 0.382372 7.02967 0.14029 7.82401C-0.101792 8.61834 -0.0286142 9.47539 0.344627 10.2172L4.08213 17.7125C4.35314 18.2503 4.76825 18.7023 5.28115 19.0179C5.79406 19.3335 6.38457 19.5004 6.98681 19.5H10.8665V35.75C10.8665 36.612 11.2089 37.4386 11.8184 38.0481C12.4279 38.6576 13.2545 39 14.1165 39H36.8665C37.7285 39 38.5551 38.6576 39.1646 38.0481C39.7741 37.4386 40.1165 36.612 40.1165 35.75V19.5H43.9962C44.5984 19.5004 45.1889 19.3335 45.7018 19.0179C46.2148 18.7023 46.6299 18.2503 46.9009 17.7125L50.6384 10.2172C51.0116 9.47539 51.0848 8.61834 50.8427 7.82401C50.6006 7.02967 50.0619 6.35911 49.3384 5.95156ZM6.98681 16.25L3.24931 8.775L10.8665 4.42812V16.25H6.98681ZM43.9962 16.25H40.1165V4.42812L47.7337 8.775L43.9962 16.25Z" fill="#2196F3" />
</svg>