<svg width="48" height="48" viewBox="0 0 48 48" fill="none" xmlns="http://www.w3.org/2000/svg">
  <path d="M22 35.4999C21.62 35.4999 21.24 35.3599 20.94 35.0599C20.36 34.4799 20.36 33.5199 20.94 32.9399L22.38 31.4999H14C13.18 31.4999 12.5 30.8199 12.5 29.9999C12.5 29.1799 13.18 28.4999 14 28.4999H22.38L20.94 27.0599C20.64 26.7599 20.5 26.3799 20.5 25.9999C20.5 25.6199 20.64 25.2399 20.94 24.9399C21.52 24.3599 22.48 24.3599 23.06 24.9399L27.06 28.9399C27.32 29.1999 27.46 29.5399 27.48 29.8599C27.48 29.9599 27.48 30.0799 27.48 30.1799C27.44 30.4599 27.32 30.7199 27.12 30.9599C27.1 30.9799 27.06 31.0199 27.04 31.0399L23.04 35.0399C22.76 35.3599 22.38 35.4999 22 35.4999Z" fill="#2196F3" />
  <path d="M30 45.5H18C7.14 45.5 2.5 40.86 2.5 30V18C2.5 7.14 7.14 2.5 18 2.5H28C28.82 2.5 29.5 3.18 29.5 4C29.5 4.82 28.82 5.5 28 5.5H18C8.78 5.5 5.5 8.78 5.5 18V30C5.5 39.22 8.78 42.5 18 42.5H30C39.22 42.5 42.5 39.22 42.5 30V20C42.5 19.18 43.18 18.5 44 18.5C44.82 18.5 45.5 19.18 45.5 20V30C45.5 40.86 40.86 45.5 30 45.5Z" fill="#2196F3" />
  <path d="M44 21.5H36C29.16 21.5 26.5 18.84 26.5 12V3.99998C26.5 3.39998 26.86 2.83998 27.42 2.61998C27.98 2.37998 28.62 2.51998 29.06 2.93998L45.06 18.94C45.48 19.36 45.62 20.02 45.38 20.58C45.14 21.14 44.6 21.5 44 21.5ZM29.5 7.61998V12C29.5 17.16 30.84 18.5 36 18.5H40.38L29.5 7.61998Z" fill="#2196F3" />
</svg>