<svg width="52" height="52" viewBox="0 0 52 52" fill="none" xmlns="http://www.w3.org/2000/svg">
  <path d="M36.0752 12.3933H15.9252C9.5335 12.3933 4.3335 17.5933 4.3335 23.985V36.075C4.3335 42.4666 9.5335 47.6666 15.9252 47.6666H36.0752C42.4668 47.6666 47.6668 42.4666 47.6668 36.075V23.985C47.6668 17.5933 42.4668 12.3933 36.0752 12.3933ZM31.4168 26.0433C31.4168 24.8516 32.3918 23.8766 33.5835 23.8766C34.7752 23.8766 35.7502 24.8516 35.7502 26.0433C35.7502 27.235 34.7752 28.2316 33.5835 28.2316C32.3918 28.2316 31.4168 27.2783 31.4168 26.0866V26.0433ZM21.9485 34.8183C21.6235 35.1433 21.2118 35.295 20.8002 35.295C20.3885 35.295 19.9768 35.1433 19.6518 34.8183L17.4202 32.5866L15.2752 34.7316C14.9502 35.0566 14.5385 35.2083 14.1268 35.2083C13.7152 35.2083 13.3035 35.0566 12.9785 34.7316C12.3502 34.1033 12.3502 33.0633 12.9785 32.435L15.1235 30.29L13.0435 28.21C12.4152 27.5816 12.4152 26.5416 13.0435 25.9133C13.6718 25.285 14.7118 25.285 15.3402 25.9133L17.4202 27.9933L19.5652 25.8483C20.1935 25.22 21.2335 25.22 21.8618 25.8483C22.4902 26.4766 22.4902 27.5166 21.8618 28.145L19.7168 30.29L21.9485 32.5216C22.5768 33.15 22.5768 34.19 21.9485 34.8183ZM29.3368 32.5C28.1452 32.5 27.1485 31.525 27.1485 30.3333C27.1485 29.1416 28.1018 28.1666 29.2935 28.1666H29.3368C30.5285 28.1666 31.5035 29.1416 31.5035 30.3333C31.5035 31.525 30.5502 32.5 29.3368 32.5ZM33.5835 36.7683C32.3918 36.7683 31.4168 35.815 31.4168 34.6233V34.58C31.4168 33.3883 32.3918 32.4133 33.5835 32.4133C34.7752 32.4133 35.7502 33.3883 35.7502 34.58C35.7502 35.7716 34.7968 36.7683 33.5835 36.7683ZM37.8735 32.5C36.6818 32.5 35.6852 31.525 35.6852 30.3333C35.6852 29.1416 36.6385 28.1666 37.8302 28.1666H37.8735C39.0652 28.1666 40.0402 29.1416 40.0402 30.3333C40.0402 31.525 39.0868 32.5 37.8735 32.5Z" fill="#2196F3" />
  <path d="M29.5534 5.87165L29.5318 7.90831C29.5101 9.81498 27.9284 11.3966 26.0001 11.3966C25.6751 11.3966 25.4801 11.6133 25.4801 11.895C25.4801 12.1766 25.6968 12.3933 25.9784 12.3933H22.4901C22.4684 12.2416 22.4468 12.0683 22.4468 11.895C22.4468 9.94498 24.0284 8.36331 25.9568 8.36331C26.2818 8.36331 26.4984 8.14665 26.4984 7.86498L26.5201 5.82831C26.5418 5.00498 27.2134 4.33331 28.0368 4.33331H28.0584C28.9034 4.33331 29.5534 5.02665 29.5534 5.87165Z" fill="#2196F3" />
</svg>