<svg width="46" height="49" viewBox="0 0 46 49" fill="none" xmlns="http://www.w3.org/2000/svg">
  <path d="M22.7199 0.000338777C22.6025 0.00648051 22.4877 0.0366072 22.3834 0.0909616C22.3834 0.0909616 12.7342 4.90403 0.701437 6.5084C0.29717 6.56429 -0.00297613 6.91124 2.22669e-05 7.31932V24.3755C2.22669e-05 34.8243 5.72054 41.0223 11.3607 44.469C17.0009 47.9158 22.6294 48.7457 22.6294 48.7457C22.7093 48.758 22.7907 48.758 22.8706 48.7457C22.8706 48.7457 28.4991 47.9158 34.1393 44.469C39.7795 41.0223 45.5 34.8243 45.5 24.3755V7.31932C45.5034 6.91124 45.2029 6.56423 44.7986 6.5084C32.7658 4.90403 23.1166 0.0909616 23.1166 0.0909616C22.9942 0.0277017 22.8577 -0.00365335 22.7199 0.000338777ZM22.75 9.75358C30.8175 9.75358 37.3718 16.3078 37.3718 24.3753C37.3718 32.4429 30.8175 39.0052 22.75 39.0052C14.6824 39.0052 8.12814 32.4429 8.12814 24.3753C8.12814 16.3078 14.6824 9.75358 22.75 9.75358ZM19.4984 17.0645V21.1318H15.439C14.9903 21.1301 14.6252 21.4924 14.6234 21.9411V26.8177C14.625 27.2664 14.9903 27.6287 15.439 27.627H19.4984V31.6942C19.5 32.1436 19.8663 32.5061 20.3156 32.5036H25.1843C25.633 32.5052 25.9982 32.1429 26 31.6942V27.627H30.0609C30.5096 27.6286 30.8748 27.2664 30.8765 26.8177V21.9411C30.8749 21.4924 30.5096 21.13 30.0609 21.1318H26V17.0645C25.9983 16.6158 25.633 16.2535 25.1843 16.2552H20.2736C19.8153 16.296 19.498 16.6463 19.4984 17.0645Z" fill="#2196F3" />
</svg>