<svg width="52" height="50" viewBox="0 0 52 50" fill="none" xmlns="http://www.w3.org/2000/svg">
  <path d="M51.1267 21.9587L27.796 0.699917C26.7719 -0.233339 25.2277 -0.233238 24.204 0.699815L0.873237 21.9588C0.0529184 22.7063 -0.21805 23.8581 0.182715 24.8929C0.583581 25.9277 1.5596 26.5963 2.66937 26.5963H6.39569V47.896C6.39569 48.7405 7.08042 49.4252 7.92491 49.4252H20.713C21.5575 49.4252 22.2423 48.7406 22.2423 47.896V34.9635H29.7581V47.8961C29.7581 48.7406 30.4428 49.4253 31.2873 49.4253H44.0748C44.9193 49.4253 45.604 48.7407 45.604 47.8961V26.5963H49.331C50.4407 26.5963 51.4168 25.9276 51.8177 24.8929C52.218 23.858 51.947 22.7063 51.1267 21.9587Z" fill="#2196F3" />
</svg>