<svg width="17" height="18" viewBox="0 0 17 18" fill="none" xmlns="http://www.w3.org/2000/svg">
  <path d="M5.00163 13.1126H11.6683M7.51637 1.2493L1.86445 5.64524C1.48665 5.93909 1.29774 6.08601 1.16165 6.27002C1.0411 6.43301 0.951295 6.61662 0.89665 6.81184C0.834961 7.03223 0.834961 7.27155 0.834961 7.75018V13.7793C0.834961 14.7127 0.834961 15.1794 1.01662 15.5359C1.17641 15.8495 1.43137 16.1045 1.74498 16.2643C2.1015 16.446 2.56821 16.446 3.50163 16.446H13.1683C14.1017 16.446 14.5684 16.446 14.9249 16.2643C15.2385 16.1045 15.4935 15.8495 15.6533 15.5359C15.835 15.1794 15.835 14.7127 15.835 13.7793V7.75018C15.835 7.27155 15.835 7.03223 15.7733 6.81184C15.7186 6.61662 15.6288 6.43301 15.5083 6.27002C15.3722 6.08601 15.1833 5.93909 14.8055 5.64524L9.15355 1.2493C8.86078 1.02159 8.71439 0.907735 8.55275 0.863969C8.41012 0.825353 8.2598 0.825353 8.11717 0.863969C7.95553 0.907735 7.80914 1.02159 7.51637 1.2493Z" stroke="#A4A7AE" stroke-width="1.67" stroke-linecap="round" stroke-linejoin="round" />
</svg>