<svg width="20" height="20" viewBox="0 0 20 20" fill="none" xmlns="http://www.w3.org/2000/svg">
  <g clip-path="url(#clip0_7394_5848)">
    <path d="M10.0013 12.5C7.23988 12.5 5.0013 10.2614 5.0013 7.49999V2.87036C5.0013 2.52549 5.0013 2.35305 5.05156 2.21497C5.13581 1.9835 5.31815 1.80116 5.54962 1.71691C5.6877 1.66666 5.86013 1.66666 6.20501 1.66666H13.7976C14.1425 1.66666 14.3149 1.66666 14.453 1.71691C14.6845 1.80116 14.8668 1.9835 14.951 2.21497C15.0013 2.35305 15.0013 2.52549 15.0013 2.87036V7.49999C15.0013 10.2614 12.7627 12.5 10.0013 12.5ZM10.0013 12.5V15M15.0013 3.33332H17.0846C17.4729 3.33332 17.6671 3.33332 17.8202 3.39676C18.0244 3.48134 18.1866 3.64356 18.2712 3.84775C18.3346 4.0009 18.3346 4.19504 18.3346 4.58332V4.99999C18.3346 5.77497 18.3346 6.16245 18.2495 6.48037C18.0183 7.3431 17.3444 8.01697 16.4817 8.24814C16.1638 8.33332 15.7763 8.33332 15.0013 8.33332M5.0013 3.33332H2.91797C2.52968 3.33332 2.33554 3.33332 2.1824 3.39676C1.97821 3.48134 1.81598 3.64356 1.7314 3.84775C1.66797 4.0009 1.66797 4.19504 1.66797 4.58332V4.99999C1.66797 5.77497 1.66797 6.16245 1.75315 6.48037C1.98432 7.3431 2.65819 8.01697 3.52092 8.24814C3.83884 8.33332 4.22633 8.33332 5.0013 8.33332M6.20501 18.3333H13.7976C14.0021 18.3333 14.168 18.1675 14.168 17.963C14.168 16.3266 12.8414 15 11.205 15H8.7976C7.1612 15 5.83464 16.3266 5.83464 17.963C5.83464 18.1675 6.00046 18.3333 6.20501 18.3333Z" stroke="#A4A7AE" stroke-width="1.67" stroke-linecap="round" stroke-linejoin="round" />
  </g>
  <defs>
    <clipPath id="clip0_7394_5848">
      <rect width="20" height="20" fill="white" />
    </clipPath>
  </defs>
</svg>