<svg width="143" height="20" viewBox="0 0 143 20" fill="none" xmlns="http://www.w3.org/2000/svg">
  <path d="M128.086 19.9959C117.515 20.0249 113.143 16.982 113.143 10.6645V9.24448C113.143 2.98489 117.515 0 128.086 0C138.627 0 143 2.98489 143 9.24448V10.6645C143 16.982 138.627 20.0249 128.086 19.9959ZM128.086 15.4751C134.949 15.4751 137.613 14.171 137.613 10.2877V9.59223C137.613 5.79591 134.978 4.52081 128.086 4.52081C121.193 4.52081 118.558 5.79591 118.558 9.59223V10.2877C118.558 14.171 121.222 15.4751 128.086 15.4751Z" fill="#0D47A1" />
  <path d="M97.808 14.2881L106.148 0.37793H112.288L100.154 19.5914H95.4333L83.2993 0.37793H89.4387L97.808 14.2881Z" fill="#0D47A1" />
  <path d="M82.6232 19.5888H76.3969L71.0394 13.1263H63.0755V19.5888H57.8628V0.404297H74.0222C79.3218 0.404297 81.9571 2.20103 81.9571 6.66388V6.83776C81.9571 10.4022 80.3064 12.2569 76.9761 12.8945L82.6232 19.5888ZM73.7036 4.63531H63.0755V9.35898H73.7036C75.8466 9.35898 76.5417 8.40265 76.5417 7.04062V6.89572C76.5417 5.5047 75.7887 4.63531 73.7036 4.63531Z" fill="#0D47A1" />
  <path fill-rule="evenodd" clip-rule="evenodd" d="M49.3391 19.5914H54.9283L42.8812 0.37793H38.1897L26.1426 19.5914H31.587L33.73 16.1138L35.873 12.6073L40.5354 5.01466L45.111 12.6073L47.2251 16.1138L49.3391 19.5914Z" fill="#0D47A1" />
  <path d="M25.2816 19.5896H18.4182L10.9756 10.8958L5.21271 15.2137V19.5896H0V0.405167H5.21271V9.91046L17.7522 0.405167H25.05L15.1168 7.82393L25.2816 19.5896Z" fill="#0D47A1" />
</svg>