<svg width="19" height="19" viewBox="0 0 19 19" fill="none" xmlns="http://www.w3.org/2000/svg">
  <path d="M7.45557 9.94631C7.81345 10.4247 8.27003 10.8206 8.79436 11.1071C9.31869 11.3936 9.89849 11.5639 10.4944 11.6066C11.0904 11.6493 11.6886 11.5633 12.2484 11.3545C12.8082 11.1456 13.3165 10.8189 13.7389 10.3963L16.2389 7.89631C16.9979 7.11046 17.4179 6.05795 17.4084 4.96547C17.3989 3.87298 16.9607 2.82793 16.1881 2.0554C15.4156 1.28286 14.3706 0.844658 13.2781 0.835164C12.1856 0.825671 11.1331 1.24565 10.3472 2.00464L8.9139 3.42964M10.7889 8.27964C10.431 7.8012 9.97444 7.40532 9.45011 7.11886C8.92578 6.83239 8.34598 6.66204 7.75003 6.61936C7.15408 6.57668 6.55591 6.66267 5.99612 6.87149C5.43632 7.08031 4.92797 7.40708 4.50557 7.82964L2.00557 10.3296C1.24658 11.1155 0.826602 12.168 0.836095 13.2605C0.845588 14.353 1.28379 15.398 2.05633 16.1705C2.82886 16.9431 3.87391 17.3813 4.9664 17.3908C6.05888 17.4003 7.11139 16.9803 7.89724 16.2213L9.32224 14.7963" stroke="#A4A7AE" stroke-width="1.67" stroke-linecap="round" stroke-linejoin="round" />
</svg>