<svg width="19" height="19" viewBox="0 0 19 19" fill="none" xmlns="http://www.w3.org/2000/svg">
  <path d="M4.16829 11.6683L5.83496 13.335L9.58496 9.58499M5.83496 5.83499V3.50166C5.83496 2.56824 5.83496 2.10153 6.01662 1.74501C6.17641 1.4314 6.43137 1.17644 6.74498 1.01665C7.1015 0.834991 7.56821 0.834991 8.50163 0.834991H14.835C15.7684 0.834991 16.2351 0.834991 16.5916 1.01665C16.9052 1.17644 17.1602 1.4314 17.32 1.74501C17.5016 2.10153 17.5016 2.56824 17.5016 3.50166V9.83499C17.5016 10.7684 17.5016 11.2351 17.32 11.5916C17.1602 11.9052 16.9052 12.1602 16.5916 12.32C16.2351 12.5017 15.7684 12.5017 14.835 12.5017H12.5016M3.50163 17.5017H9.83496C10.7684 17.5017 11.2351 17.5017 11.5916 17.32C11.9052 17.1602 12.1602 16.9052 12.32 16.5916C12.5016 16.2351 12.5016 15.7684 12.5016 14.835V8.50166C12.5016 7.56824 12.5016 7.10153 12.32 6.74501C12.1602 6.4314 11.9052 6.17644 11.5916 6.01665C11.2351 5.83499 10.7684 5.83499 9.83496 5.83499H3.50163C2.56821 5.83499 2.1015 5.83499 1.74498 6.01665C1.43137 6.17644 1.17641 6.4314 1.01662 6.74501C0.834961 7.10153 0.834961 7.56824 0.834961 8.50166V14.835C0.834961 15.7684 0.834961 16.2351 1.01662 16.5916C1.17641 16.9052 1.43137 17.1602 1.74498 17.32C2.1015 17.5017 2.56821 17.5017 3.50163 17.5017Z" stroke="#A4A7AE" stroke-width="1.67" stroke-linecap="round" stroke-linejoin="round" />
</svg>