<svg width="17" height="17" viewBox="0 0 17 17" fill="none" xmlns="http://www.w3.org/2000/svg">
  <path d="M13.1683 6.66834C14.1017 6.66834 14.5684 6.66834 14.9249 6.48668C15.2385 6.3269 15.4935 6.07193 15.6533 5.75832C15.835 5.40181 15.835 4.93509 15.835 4.00167V3.50167C15.835 2.56825 15.835 2.10154 15.6533 1.74502C15.4935 1.43142 15.2385 1.17645 14.9249 1.01666C14.5684 0.835007 14.1017 0.835007 13.1683 0.835007L3.50163 0.835007C2.56821 0.835007 2.1015 0.835007 1.74498 1.01666C1.43137 1.17645 1.17641 1.43142 1.01662 1.74502C0.834961 2.10154 0.834961 2.56825 0.834961 3.50167L0.834961 4.00167C0.834961 4.93509 0.834961 5.4018 1.01662 5.75832C1.17641 6.07193 1.43137 6.3269 1.74498 6.48668C2.1015 6.66834 2.56821 6.66834 3.50163 6.66834L13.1683 6.66834Z" stroke="#A4A7AE" stroke-width="1.67" stroke-linecap="round" stroke-linejoin="round" />
  <path d="M13.1683 15.835C14.1017 15.835 14.5684 15.835 14.9249 15.6534C15.2385 15.4936 15.4935 15.2386 15.6533 14.925C15.835 14.5685 15.835 14.1018 15.835 13.1683V12.6683C15.835 11.7349 15.835 11.2682 15.6533 10.9117C15.4935 10.5981 15.2385 10.3431 14.9249 10.1833C14.5684 10.0017 14.1017 10.0017 13.1683 10.0017L3.50163 10.0017C2.56821 10.0017 2.1015 10.0017 1.74498 10.1833C1.43137 10.3431 1.17641 10.5981 1.01662 10.9117C0.834961 11.2682 0.834961 11.7349 0.834961 12.6683L0.834961 13.1683C0.834961 14.1018 0.834961 14.5685 1.01662 14.925C1.17641 15.2386 1.43137 15.4936 1.74498 15.6534C2.1015 15.835 2.56821 15.835 3.50163 15.835H13.1683Z" stroke="#A4A7AE" stroke-width="1.67" stroke-linecap="round" stroke-linejoin="round" />
</svg>