<svg width="52" height="52" viewBox="0 0 52 52" fill="none" xmlns="http://www.w3.org/2000/svg">
  <g clip-path="url(#clip0_2318_12416)">
    <path d="M34.0234 41.7422H1.52344C0.682094 41.7422 0 42.4243 0 43.2656C0 45.7898 2.04618 47.8359 4.57031 47.8359H30.9766C33.5007 47.8359 35.5469 45.7898 35.5469 43.2656C35.5469 42.4243 34.8648 41.7422 34.0234 41.7422Z" fill="#2196F3" />
    <path d="M51.2513 6.7814C45.3459 3.29162 39.3568 3.29162 33.4513 6.7814C32.7464 7.19791 32.4968 8.09715 32.8862 8.81743L37.5108 17.372H47.1919L51.8165 8.81743C52.2058 8.09715 51.9562 7.19791 51.2513 6.7814Z" fill="#2196F3" />
    <path d="M38.543 20.4141H46.1602V24.9844H38.543V20.4141Z" fill="#2196F3" />
    <path d="M38.543 44.0273C38.543 46.1308 40.2481 47.8359 42.3516 47.8359C44.455 47.8359 46.1602 46.1308 46.1602 44.0273V28.0312H38.543V44.0273Z" fill="#2196F3" />
    <path d="M26.0322 15.71C23.8263 13.504 20.8932 12.2891 17.7734 12.2891C14.6536 12.2891 11.7206 13.504 9.51468 15.71C7.30864 17.9159 6.09375 20.849 6.09375 23.9688C6.09375 27.0885 7.30864 30.0216 9.51468 32.2275C11.7206 34.4335 14.6536 35.6484 17.7734 35.6484C20.8932 35.6484 23.8263 34.4335 26.0322 32.2275C28.2382 30.0216 29.4531 27.0885 29.4531 23.9688C29.4531 20.849 28.2382 17.9159 26.0322 15.71ZM12.0282 26.9285C11.6384 26.9285 11.2485 26.7798 10.9511 26.4822C10.3561 25.8873 10.3561 24.9227 10.9511 24.3278L18.1326 17.1463C18.7274 16.5513 19.6921 16.5513 20.287 17.1463C20.882 17.7412 20.882 18.7058 20.287 19.3007L13.1055 26.4822C12.8079 26.7798 12.4181 26.9285 12.0282 26.9285ZM24.5959 23.6096L17.4144 30.7911C17.1169 31.0886 16.727 31.2374 16.3372 31.2374C15.9474 31.2374 15.5574 31.0887 15.2601 30.7911C14.6651 30.1962 14.6651 29.2316 15.2601 28.6367L22.4416 21.4552C23.0364 20.8602 24.001 20.8602 24.596 21.4552C25.1909 22.0501 25.1909 23.0147 24.5959 23.6096Z" fill="#2196F3" />
    <path d="M17.7734 6.19531C7.97316 6.19531 0 14.1685 0 23.9688C0 30.0893 3.10995 35.4971 7.8325 38.6953H17.7734C9.64021 38.6953 3.04688 32.102 3.04688 23.9688C3.04688 15.8355 9.64021 9.24219 17.7734 9.24219C25.9067 9.24219 32.5 15.8355 32.5 23.9688C32.5 32.102 25.9067 38.6953 17.7734 38.6953H27.7144C32.4369 35.4971 35.5469 30.0893 35.5469 23.9688C35.5469 14.1685 27.5737 6.19531 17.7734 6.19531Z" fill="#2196F3" />
  </g>
  <defs>
    <clipPath id="clip0_2318_12416">
      <rect width="52" height="52" fill="white" />
    </clipPath>
  </defs>
</svg>