<svg width="19" height="19" viewBox="0 0 19 19" fill="none" xmlns="http://www.w3.org/2000/svg">
  <path d="M0.834961 0.835007H1.92343C2.12845 0.835007 2.23095 0.835007 2.31345 0.872707C2.38614 0.90593 2.44775 0.959361 2.49092 1.02663C2.53991 1.10296 2.5544 1.20444 2.5834 1.40739L2.97782 4.16834M2.97782 4.16834L3.85439 10.6112C3.96563 11.4288 4.02125 11.8376 4.21671 12.1453C4.38894 12.4164 4.63586 12.632 4.92776 12.7662C5.25901 12.9183 5.67158 12.9183 6.49672 12.9183H13.6283C14.4137 12.9183 14.8065 12.9183 15.1274 12.777C15.4104 12.6524 15.6532 12.4515 15.8285 12.1969C16.0274 11.908 16.1009 11.5222 16.2479 10.7506L17.3509 4.95975C17.4026 4.68818 17.4285 4.5524 17.391 4.44626C17.3581 4.35315 17.2932 4.27474 17.2079 4.22502C17.1107 4.16834 16.9724 4.16834 16.696 4.16834H2.97782ZM7.50163 16.6683C7.50163 17.1286 7.12853 17.5017 6.66829 17.5017C6.20806 17.5017 5.83496 17.1286 5.83496 16.6683C5.83496 16.2081 6.20806 15.835 6.66829 15.835C7.12853 15.835 7.50163 16.2081 7.50163 16.6683ZM14.1683 16.6683C14.1683 17.1286 13.7952 17.5017 13.335 17.5017C12.8747 17.5017 12.5016 17.1286 12.5016 16.6683C12.5016 16.2081 12.8747 15.835 13.335 15.835C13.7952 15.835 14.1683 16.2081 14.1683 16.6683Z" stroke="#A4A7AE" stroke-width="1.67" stroke-linecap="round" stroke-linejoin="round" />
</svg>