<svg width="52" height="52" viewBox="0 0 52 52" fill="none" xmlns="http://www.w3.org/2000/svg">
  <g clip-path="url(#clip0_2318_12232)">
    <path d="M51.5132 32.692L51.2452 32.2979L51.0234 32.7197C49.5756 35.4704 44.7622 37.1142 40.9451 37.1142C36.0846 37.1142 12.0876 36.3838 8.9635 36.2059C8.34592 36.1693 7.70087 36.1522 6.93333 36.1522C6.45724 36.1522 6.01514 36.1581 5.58759 36.1638C5.21624 36.1687 4.86584 36.1734 4.53662 36.1734C3.50934 36.1734 2.66465 35.8985 2.04799 35.6977C1.64837 35.5677 1.33265 35.465 1.0712 35.465C0.869611 35.465 0.706259 35.5271 0.585719 35.6495C0.427862 35.8097 0.357004 36.0584 0.362613 36.4323C0.410462 39.6665 2.12285 39.9165 4.53673 39.9165C4.86825 39.9165 5.22116 39.9118 5.59526 39.9069C6.02087 39.9012 6.46101 39.8953 6.93333 39.8953C7.6893 39.8953 8.32371 39.912 8.9303 39.948C12.0581 40.1261 36.0797 40.8572 40.9451 40.8572C43.4146 40.8572 46.1446 40.2014 48.2476 39.1033C50.6676 37.8394 52.0003 36.1387 52.0003 34.3142C52.0003 33.7131 51.8364 33.1672 51.5132 32.692Z" fill="#2196F3" />
    <path d="M4.21222 34.6203C4.54133 34.6203 4.89138 34.6157 5.26262 34.6107C5.68491 34.605 6.12173 34.5992 6.59038 34.5992C7.34189 34.5992 7.97115 34.6159 8.57167 34.6518C11.6749 34.8299 35.5099 35.561 40.3382 35.561C42.7893 35.561 45.4986 34.9052 47.5858 33.8066C49.9873 32.5426 51.3098 30.842 51.3098 29.018C51.3098 26.3725 48.2916 25.5182 45.0962 24.6135C43.3539 24.1204 41.5523 23.6104 40.0299 22.7943C39.3443 22.4259 38.2988 21.892 37.0247 21.254C37.0268 21.2171 37.0303 21.1805 37.0303 21.1432C37.0303 20.054 36.1443 19.1679 35.0551 19.1679C34.5662 19.1679 34.1192 19.3474 33.7739 19.6428C33.3125 19.4159 32.8394 19.1837 32.3581 18.948C32.3151 17.8967 31.4488 17.0541 30.387 17.0541C29.9582 17.0541 29.562 17.193 29.2379 17.426C28.8064 17.2162 28.3741 17.0063 27.9431 16.7971C27.9523 16.7202 27.9584 16.6423 27.9584 16.563C27.9584 15.4739 27.0724 14.5879 25.9833 14.5879C25.4367 14.5879 24.9415 14.8112 24.5835 15.1711C20.3733 13.1381 16.9216 11.4869 16.6123 11.339C16.4239 11.2104 16.2138 11.1425 16.003 11.1425C15.663 11.1425 15.3362 11.3078 15.1284 11.5853L12.8028 14.704C12.4912 15.126 12.3688 15.5514 12.439 15.9687C12.578 16.7954 13.4308 17.381 14.116 17.8515C14.3888 18.0389 14.7945 18.3174 14.8596 18.4526C14.8587 18.4535 14.8577 18.4546 14.8568 18.4555C14.4778 18.826 13.2613 19.3775 11.4629 19.3775C10.4234 19.3775 9.32799 19.1789 8.29511 18.8029C7.03122 18.3427 6.50899 17.0801 6.08945 16.0655C5.73859 15.2169 5.43547 14.4842 4.76203 14.4842C4.25114 14.4842 3.66 14.9425 2.78246 16.0204C-0.200348 19.8117 -0.0609212 25.6046 0.0409593 29.8344C0.0518341 30.2873 0.0623656 30.7227 0.0684326 31.1358C0.115824 34.3705 1.81574 34.6203 4.21222 34.6203ZM29.2122 22.8676C29.2122 22.8676 29.5948 22.4889 30.0676 22.6305C30.4792 22.7537 31.4523 23.0158 32.0477 23.1637C32.5567 23.2902 32.0971 23.6904 32.0971 23.6904L24.3681 30.7649C24.3619 30.7694 24.0475 31.0561 23.5705 31.0561C22.8005 31.0561 21.3076 31.0503 20.6993 31.0503C20.1937 31.0503 20.6133 30.6237 20.6133 30.6237C20.6133 30.6237 29.2112 22.8676 29.2122 22.8676ZM23.3272 21.1978C23.3292 21.1959 23.9237 20.6096 24.6395 20.8362C25.0024 20.951 25.854 21.1624 26.3972 21.3144C26.8617 21.4443 26.3692 21.9235 26.3689 21.924L16.8014 30.5981C16.7948 30.6031 16.5735 31.0029 15.8278 31.0029C14.9864 31.0029 13.3807 31.0414 12.7237 31.0414C12.3524 31.0414 12.6825 30.642 12.6821 30.6422L23.3272 21.1978Z" fill="#2196F3" />
  </g>
  <defs>
    <clipPath id="clip0_2318_12232">
      <rect width="52" height="52" fill="white" />
    </clipPath>
  </defs>
</svg>