<svg width="17" height="14" viewBox="0 0 17 14" fill="none" xmlns="http://www.w3.org/2000/svg">
  <path d="M15.8359 6.66833L5.83594 6.66832M15.8359 1.66833L5.83594 1.66832M15.8359 11.6683L5.83594 11.6683M2.5026 6.66832C2.5026 7.12856 2.12951 7.50166 1.66927 7.50166C1.20903 7.50166 0.835938 7.12856 0.835938 6.66832C0.835938 6.20809 1.20903 5.83499 1.66927 5.83499C2.12951 5.83499 2.5026 6.20809 2.5026 6.66832ZM2.5026 1.66832C2.5026 2.12856 2.12951 2.50166 1.66927 2.50166C1.20903 2.50166 0.835938 2.12856 0.835938 1.66832C0.835938 1.20809 1.20903 0.834991 1.66927 0.834991C2.12951 0.834991 2.5026 1.20809 2.5026 1.66832ZM2.5026 11.6683C2.5026 12.1286 2.12951 12.5017 1.66927 12.5017C1.20903 12.5017 0.835938 12.1286 0.835938 11.6683C0.835938 11.2081 1.20903 10.835 1.66927 10.835C2.12951 10.835 2.5026 11.2081 2.5026 11.6683Z" stroke="#A4A7AE" stroke-width="1.67" stroke-linecap="round" stroke-linejoin="round" />
</svg>