<svg width="52" height="52" viewBox="0 0 52 52" fill="none" xmlns="http://www.w3.org/2000/svg">
  <g clip-path="url(#clip0_2318_12240)">
    <path d="M0.203125 50.375C0.203018 50.5618 0.239723 50.7467 0.311141 50.9193C0.38256 51.0918 0.48729 51.2486 0.619345 51.3807C0.751399 51.5127 0.908188 51.6174 1.08075 51.6889C1.2533 51.7603 1.43825 51.797 1.625 51.7969H21.3281V19.2969H0.203125V50.375ZM4.46875 23.5625C4.46875 23.1854 4.61855 22.8237 4.88521 22.5571C5.15186 22.2904 5.51352 22.1406 5.89063 22.1406C6.26773 22.1406 6.62939 22.2904 6.89604 22.5571C7.1627 22.8237 7.3125 23.1854 7.3125 23.5625V33.3125C7.3125 33.6896 7.1627 34.0513 6.89604 34.3179C6.62939 34.5846 6.26773 34.7344 5.89063 34.7344C5.51352 34.7344 5.15186 34.5846 4.88521 34.3179C4.61855 34.0513 4.46875 33.6896 4.46875 33.3125V23.5625Z" fill="#2196F3" />
    <path d="M37.9844 44.6875C41.2377 44.6875 43.875 42.0502 43.875 38.7969C43.875 35.5436 41.2377 32.9062 37.9844 32.9062C34.7311 32.9062 32.0938 35.5436 32.0938 38.7969C32.0938 42.0502 34.7311 44.6875 37.9844 44.6875Z" fill="#2196F3" />
    <path d="M24.1719 51.7969H50.375C50.752 51.7967 51.1136 51.6468 51.3802 51.3802C51.6468 51.1136 51.7967 50.752 51.7969 50.375V25.7969H24.1719V51.7969ZM37.9844 30.0625C39.7119 30.0625 41.4006 30.5748 42.8369 31.5345C44.2733 32.4943 45.3928 33.8584 46.0539 35.4544C46.715 37.0504 46.8879 38.8066 46.5509 40.5009C46.2139 42.1952 45.382 43.7515 44.1605 44.973C42.939 46.1945 41.3827 47.0264 39.6884 47.3634C37.9941 47.7004 36.2379 47.5275 34.6419 46.8664C33.0459 46.2053 31.6818 45.0858 30.722 43.6494C29.7623 42.2131 29.25 40.5244 29.25 38.7969C29.2526 36.4812 30.1736 34.261 31.8111 32.6236C33.4485 30.9861 35.6687 30.0651 37.9844 30.0625Z" fill="#2196F3" />
    <path d="M30.6719 11.5781V1.625C30.672 1.43825 30.6353 1.2533 30.5639 1.08075C30.4924 0.908188 30.3877 0.751399 30.2557 0.619345C30.1236 0.48729 29.9668 0.38256 29.7943 0.311141C29.6217 0.239723 29.4368 0.203018 29.25 0.203125H1.625C1.43825 0.203018 1.2533 0.239723 1.08075 0.311141C0.908188 0.38256 0.751399 0.48729 0.619345 0.619345C0.48729 0.751399 0.38256 0.908188 0.311141 1.08075C0.239723 1.2533 0.203018 1.43825 0.203125 1.625V16.4531H21.3281V15.8438C21.3294 14.7128 21.7792 13.6286 22.5789 12.8289C23.3786 12.0292 24.4628 11.5794 25.5938 11.5781H30.6719ZM7.3125 10.7656C7.3125 11.1427 7.1627 11.5044 6.89604 11.771C6.62939 12.0377 6.26773 12.1875 5.89063 12.1875C5.51352 12.1875 5.15186 12.0377 4.88521 11.771C4.61855 11.5044 4.46875 11.1427 4.46875 10.7656V5.89063C4.46875 5.51352 4.61855 5.15186 4.88521 4.88521C5.15186 4.61855 5.51352 4.46875 5.89063 4.46875C6.26773 4.46875 6.62939 4.61855 6.89604 4.88521C7.1627 5.15186 7.3125 5.51352 7.3125 5.89063V10.7656Z" fill="#2196F3" />
    <path d="M50.375 14.4219H25.5938C25.2167 14.4221 24.8552 14.572 24.5886 14.8386C24.322 15.1052 24.1721 15.4667 24.1719 15.8438V22.9531H51.7969V15.8438C51.7967 15.4667 51.6468 15.1052 51.3802 14.8386C51.1136 14.572 50.752 14.4221 50.375 14.4219ZM29.8594 20.1094C29.5782 20.1094 29.3032 20.026 29.0694 19.8697C28.8356 19.7135 28.6534 19.4914 28.5457 19.2316C28.4381 18.9718 28.41 18.6859 28.4648 18.4101C28.5197 18.1343 28.6551 17.8809 28.854 17.6821C29.0528 17.4832 29.3062 17.3478 29.582 17.2929C29.8578 17.2381 30.1437 17.2662 30.4035 17.3739C30.6633 17.4815 30.8854 17.6637 31.0416 17.8975C31.1979 18.1314 31.2812 18.4063 31.2812 18.6875C31.281 19.0645 31.1312 19.4261 30.8646 19.6927C30.5979 19.9593 30.2364 20.1092 29.8594 20.1094ZM35.5469 20.1094C35.2657 20.1094 34.9907 20.026 34.7569 19.8697C34.5231 19.7135 34.3409 19.4914 34.2332 19.2316C34.1256 18.9718 34.0975 18.6859 34.1523 18.4101C34.2072 18.1343 34.3426 17.8809 34.5415 17.6821C34.7403 17.4832 34.9937 17.3478 35.2695 17.2929C35.5453 17.2381 35.8312 17.2662 36.091 17.3739C36.3508 17.4815 36.5729 17.6637 36.7291 17.8975C36.8854 18.1314 36.9688 18.4063 36.9688 18.6875C36.9685 19.0645 36.8187 19.4261 36.5521 19.6927C36.2854 19.9593 35.9239 20.1092 35.5469 20.1094Z" fill="#2196F3" />
  </g>
  <defs>
    <clipPath id="clip0_2318_12240">
      <rect width="52" height="52" fill="white" />
    </clipPath>
  </defs>
</svg>