<svg width="19" height="19" viewBox="0 0 19 19" fill="none" xmlns="http://www.w3.org/2000/svg">
  <path d="M6.2526 11.3906C6.2526 12.4644 7.12316 13.335 8.19705 13.335H10.0026C11.1532 13.335 12.0859 12.4023 12.0859 11.2517C12.0859 10.1011 11.1532 9.16834 10.0026 9.16834H8.33594C7.18534 9.16834 6.2526 8.2356 6.2526 7.08501C6.2526 5.93441 7.18534 5.00167 8.33594 5.00167H10.1415C11.2154 5.00167 12.0859 5.87223 12.0859 6.94612M9.16927 3.75167V5.00167M9.16927 13.335V14.585M17.5026 9.16834C17.5026 13.7707 13.7716 17.5017 9.16927 17.5017C4.5669 17.5017 0.835938 13.7707 0.835938 9.16834C0.835938 4.56597 4.5669 0.835007 9.16927 0.835007C13.7716 0.835007 17.5026 4.56597 17.5026 9.16834Z" stroke="#A4A7AE" stroke-width="1.67" stroke-linecap="round" stroke-linejoin="round" />
</svg>