<svg width="36" height="43" viewBox="0 0 36 43" fill="none" xmlns="http://www.w3.org/2000/svg">
  <path d="M35.75 1.625V34.125C35.75 34.556 35.5788 34.9693 35.274 35.274C34.9693 35.5788 34.556 35.75 34.125 35.75H6.5C5.63805 35.75 4.8114 36.0924 4.2019 36.7019C3.59241 37.3114 3.25 38.138 3.25 39H30.875C31.306 39 31.7193 39.1712 32.024 39.476C32.3288 39.7807 32.5 40.194 32.5 40.625C32.5 41.056 32.3288 41.4693 32.024 41.774C31.7193 42.0788 31.306 42.25 30.875 42.25H1.625C1.19402 42.25 0.780698 42.0788 0.475952 41.774C0.171205 41.4693 0 41.056 0 40.625V6.5C0.00535699 4.77774 0.691897 3.12755 1.90972 1.90972C3.12755 0.691897 4.77774 0.00535699 6.5 0H34.125C34.556 0 34.9693 0.171205 35.274 0.475951C35.5788 0.780698 35.75 1.19402 35.75 1.625Z" fill="#2196F3" />
</svg>