<svg width="16" height="17" viewBox="0 0 16 17" fill="none" xmlns="http://www.w3.org/2000/svg">
  <path d="M7.79935 10.835C5.15762 10.835 2.80835 12.1105 1.31268 14.09C0.990775 14.516 0.829821 14.729 0.835086 15.0169C0.839154 15.2393 0.978822 15.5199 1.15383 15.6572C1.38034 15.835 1.69425 15.835 2.32205 15.835H13.2767C13.9045 15.835 14.2184 15.835 14.4449 15.6572C14.6199 15.5199 14.7596 15.2393 14.7636 15.0169C14.7689 14.729 14.6079 14.516 14.286 14.09C12.7904 12.1105 10.4411 10.835 7.79935 10.835Z" stroke="#A4A7AE" stroke-width="1.67" stroke-linecap="round" stroke-linejoin="round" />
  <path d="M7.79936 8.33499C9.87042 8.33499 11.5494 6.65606 11.5494 4.58499C11.5494 2.51392 9.87042 0.834991 7.79936 0.834991C5.72829 0.834991 4.04936 2.51392 4.04936 4.58499C4.04936 6.65606 5.72829 8.33499 7.79936 8.33499Z" stroke="#A4A7AE" stroke-width="1.67" stroke-linecap="round" stroke-linejoin="round" />
</svg>